<mxfile host="Electron" modified="2023-09-14T07:49:49.616Z" agent="Mozilla/5.0 (Windows NT 10.0; Win64; x64) AppleWebKit/537.36 (KHTML, like Gecko) draw.io/21.6.8 Chrome/114.0.5735.289 Electron/25.5.0 Safari/537.36" etag="WG_sXvY8ANr80ygqBd-i" version="21.6.8" type="device">
  <diagram name="Page-1" id="BjkM9vCHNVNfiPpDWLcb">
    <mxGraphModel dx="651" dy="788" grid="1" gridSize="10" guides="1" tooltips="1" connect="1" arrows="1" fold="1" page="1" pageScale="1" pageWidth="850" pageHeight="1100" math="0" shadow="0">
      <root>
        <mxCell id="0" />
        <mxCell id="1" parent="0" />
        <mxCell id="7lgBvhj1WlptH0d2O9mn-1" value="Клиент" style="shape=umlActor;verticalLabelPosition=bottom;verticalAlign=top;html=1;outlineConnect=0;" vertex="1" parent="1">
          <mxGeometry x="40" y="340" width="30" height="60" as="geometry" />
        </mxCell>
        <mxCell id="7lgBvhj1WlptH0d2O9mn-5" value="" style="endArrow=classic;html=1;rounded=0;" edge="1" parent="1">
          <mxGeometry width="50" height="50" relative="1" as="geometry">
            <mxPoint x="80" y="350" as="sourcePoint" />
            <mxPoint x="154.70969813949728" y="282.34944337212755" as="targetPoint" />
          </mxGeometry>
        </mxCell>
        <mxCell id="7lgBvhj1WlptH0d2O9mn-7" value="Поиск тура" style="ellipse;whiteSpace=wrap;html=1;" vertex="1" parent="1">
          <mxGeometry x="150" y="230" width="120" height="80" as="geometry" />
        </mxCell>
        <mxCell id="7lgBvhj1WlptH0d2O9mn-8" value="Выбор подходящего тура" style="ellipse;whiteSpace=wrap;html=1;" vertex="1" parent="1">
          <mxGeometry x="150" y="340" width="120" height="80" as="geometry" />
        </mxCell>
        <mxCell id="7lgBvhj1WlptH0d2O9mn-9" value="" style="endArrow=classic;html=1;rounded=0;entryX=0;entryY=0.5;entryDx=0;entryDy=0;" edge="1" parent="1" target="7lgBvhj1WlptH0d2O9mn-8">
          <mxGeometry width="50" height="50" relative="1" as="geometry">
            <mxPoint x="80" y="360" as="sourcePoint" />
            <mxPoint x="180" y="380" as="targetPoint" />
          </mxGeometry>
        </mxCell>
        <mxCell id="7lgBvhj1WlptH0d2O9mn-10" value="" style="endArrow=classic;html=1;rounded=0;" edge="1" parent="1" target="7lgBvhj1WlptH0d2O9mn-11">
          <mxGeometry width="50" height="50" relative="1" as="geometry">
            <mxPoint x="80" y="370" as="sourcePoint" />
            <mxPoint x="170" y="470" as="targetPoint" />
          </mxGeometry>
        </mxCell>
        <mxCell id="7lgBvhj1WlptH0d2O9mn-11" value="Бронирование тура" style="ellipse;whiteSpace=wrap;html=1;" vertex="1" parent="1">
          <mxGeometry x="150" y="450" width="120" height="80" as="geometry" />
        </mxCell>
        <mxCell id="7lgBvhj1WlptH0d2O9mn-12" value="Турагент" style="shape=umlActor;verticalLabelPosition=bottom;verticalAlign=top;html=1;outlineConnect=0;" vertex="1" parent="1">
          <mxGeometry x="320" y="320" width="30" height="60" as="geometry" />
        </mxCell>
        <mxCell id="7lgBvhj1WlptH0d2O9mn-14" value="Продажа тура" style="ellipse;whiteSpace=wrap;html=1;" vertex="1" parent="1">
          <mxGeometry x="425" y="240" width="120" height="80" as="geometry" />
        </mxCell>
        <mxCell id="7lgBvhj1WlptH0d2O9mn-15" value="" style="endArrow=classic;html=1;rounded=0;" edge="1" parent="1" target="7lgBvhj1WlptH0d2O9mn-14">
          <mxGeometry width="50" height="50" relative="1" as="geometry">
            <mxPoint x="360" y="330" as="sourcePoint" />
            <mxPoint x="330" y="270" as="targetPoint" />
          </mxGeometry>
        </mxCell>
        <mxCell id="7lgBvhj1WlptH0d2O9mn-16" value="Оформление договора" style="ellipse;whiteSpace=wrap;html=1;" vertex="1" parent="1">
          <mxGeometry x="425" y="370" width="120" height="80" as="geometry" />
        </mxCell>
        <mxCell id="7lgBvhj1WlptH0d2O9mn-17" value="" style="endArrow=classic;html=1;rounded=0;entryX=0;entryY=0.5;entryDx=0;entryDy=0;" edge="1" parent="1" target="7lgBvhj1WlptH0d2O9mn-16">
          <mxGeometry width="50" height="50" relative="1" as="geometry">
            <mxPoint x="360" y="340" as="sourcePoint" />
            <mxPoint x="330" y="270" as="targetPoint" />
          </mxGeometry>
        </mxCell>
        <mxCell id="7lgBvhj1WlptH0d2O9mn-18" value="Туроператор" style="shape=umlActor;verticalLabelPosition=bottom;verticalAlign=top;html=1;outlineConnect=0;" vertex="1" parent="1">
          <mxGeometry x="30" y="610" width="30" height="60" as="geometry" />
        </mxCell>
        <mxCell id="7lgBvhj1WlptH0d2O9mn-20" value="Формирование тура" style="ellipse;whiteSpace=wrap;html=1;" vertex="1" parent="1">
          <mxGeometry x="150" y="560" width="120" height="80" as="geometry" />
        </mxCell>
        <mxCell id="7lgBvhj1WlptH0d2O9mn-21" value="" style="endArrow=classic;html=1;rounded=0;entryX=0;entryY=0.5;entryDx=0;entryDy=0;" edge="1" parent="1" target="7lgBvhj1WlptH0d2O9mn-20">
          <mxGeometry width="50" height="50" relative="1" as="geometry">
            <mxPoint x="70" y="630" as="sourcePoint" />
            <mxPoint x="190" y="580" as="targetPoint" />
          </mxGeometry>
        </mxCell>
        <mxCell id="7lgBvhj1WlptH0d2O9mn-22" value="Добавление тура в каталог" style="ellipse;whiteSpace=wrap;html=1;" vertex="1" parent="1">
          <mxGeometry x="150" y="660" width="120" height="80" as="geometry" />
        </mxCell>
        <mxCell id="7lgBvhj1WlptH0d2O9mn-23" value="" style="endArrow=classic;html=1;rounded=0;entryX=0.028;entryY=0.433;entryDx=0;entryDy=0;entryPerimeter=0;" edge="1" parent="1" target="7lgBvhj1WlptH0d2O9mn-22">
          <mxGeometry width="50" height="50" relative="1" as="geometry">
            <mxPoint x="70" y="640" as="sourcePoint" />
            <mxPoint x="140" y="640" as="targetPoint" />
          </mxGeometry>
        </mxCell>
        <mxCell id="7lgBvhj1WlptH0d2O9mn-24" value="" style="endArrow=classic;html=1;rounded=0;" edge="1" parent="1" target="7lgBvhj1WlptH0d2O9mn-25">
          <mxGeometry width="50" height="50" relative="1" as="geometry">
            <mxPoint x="70" y="650" as="sourcePoint" />
            <mxPoint x="160" y="790" as="targetPoint" />
          </mxGeometry>
        </mxCell>
        <mxCell id="7lgBvhj1WlptH0d2O9mn-25" value="Маркетинговые исследования" style="ellipse;whiteSpace=wrap;html=1;" vertex="1" parent="1">
          <mxGeometry x="150" y="760" width="120" height="80" as="geometry" />
        </mxCell>
      </root>
    </mxGraphModel>
  </diagram>
</mxfile>
